<?xml version="1.0"?>
<svg xmlns="http://www.w3.org/2000/svg" height="512px" viewBox="0 0 64 64" width="512px" class=""><g><path d="m55.71 31.29a1.033 1.033 0 0 0 -.71-.29h-20v-6h20a1.033 1.033 0 0 0 .71-.29l6-6a1.008 1.008 0 0 0 0-1.42l-6-6a1.033 1.033 0 0 0 -.71-.29h-20v-2.38a4 4 0 1 0 -6 0v12.38h-20a1.033 1.033 0 0 0 -.71.29l-6 6a1.008 1.008 0 0 0 0 1.42l6 6a1.033 1.033 0 0 0 .71.29h20v19.29c-3.06.57-5 1.97-5 3.71 0 2.63 4.02 4 8 4s8-1.37 8-4c0-1.74-1.94-3.14-5-3.71v-9.29h20a1.033 1.033 0 0 0 .71-.29l6-6a1.008 1.008 0 0 0 0-1.42zm-20.71-18.29h19.59l5 5-5 5h-19.59zm-3-9a2 2 0 1 1 -2 2 2.006 2.006 0 0 1 2-2zm1 5.86v46.14a1 1 0 0 1 -2 0v-46.14a3.641 3.641 0 0 0 2 0zm-23.59 23.14-5-5 5-5h19.59v10zm28.59 25c0 .71-2.28 2-6 2s-6-1.29-6-2c0-.47 1.07-1.26 3.03-1.69a2.985 2.985 0 0 0 5.94 0c1.96.43 3.03 1.22 3.03 1.69zm16.59-15h-19.59v-10h19.59l5 5z" data-original="#000000" class="active-path" data-old_color="#000000" fill="#FFFFFF"/></g> </svg>
